# xmcd
#
# Track frame offsets:
#	150
#	9120
#	24135
#	34692
#	53542
#	61502
#	69015
#	86485
#	96707
#	112515
#
# Disc length: 1644 seconds
#
# Revision: 0
# Processed by: cddbd v1.5.2PL0 Copyright (c) Steve Scherf et al.
# Submitted via: EasyCDDAExtractor 10.2.0.1
#
DISCID=5c066a0a
DTITLE=The Smoky Mountain Boys - Victory Is Coming
DYEAR=1900
DGENRE=Bluegrass
TTITLE0=The Holy Looking Glass
TTITLE1=One Of The Fold
TTITLE2=Solid Rock
TTITLE3=What Will You Do With This Man
TTITLE4=Climbing Up The Mountain
TTITLE5=They Will Walk With Me In White
TTITLE6=Good Morning Lord
TTITLE7=You Can Feel It In Your Soul
TTITLE8=THere Is A Fountain
TTITLE9=Victory Is Coming
EXTD=
EXTT0=
EXTT1=
EXTT2=
EXTT3=
EXTT4=
EXTT5=
EXTT6=
EXTT7=
EXTT8=
EXTT9=
PLAYORDER=
